<svg width="425" height="71" viewBox="0 0 425 71" fill="none" xmlns="http://www.w3.org/2000/svg">
<path d="M26.856 70.344C21.8 70.344 17.32 69.448 13.416 67.656C9.512 65.864 6.44 63.24 4.2 59.784C2.024 56.264 0.936 52.008 0.936 47.016V44.616H11.208V47.016C11.208 51.752 12.616 55.304 15.432 57.672C18.312 60.04 22.12 61.224 26.856 61.224C31.656 61.224 35.272 60.232 37.704 58.248C40.136 56.2 41.352 53.576 41.352 50.376C41.352 48.264 40.776 46.536 39.624 45.192C38.472 43.848 36.84 42.792 34.728 42.024C32.616 41.192 30.088 40.424 27.144 39.72L23.592 38.856C19.304 37.832 15.56 36.584 12.36 35.112C9.224 33.576 6.792 31.56 5.064 29.064C3.336 26.568 2.472 23.368 2.472 19.464C2.472 15.496 3.432 12.104 5.352 9.288C7.336 6.472 10.056 4.296 13.512 2.75999C16.968 1.224 21.032 0.455996 25.704 0.455996C30.376 0.455996 34.536 1.256 38.184 2.856C41.896 4.456 44.808 6.824 46.92 9.96C49.032 13.096 50.088 17.032 50.088 21.768V25.224H39.816V21.768C39.816 18.888 39.208 16.552 37.992 14.76C36.84 12.968 35.208 11.656 33.096 10.824C30.984 9.992 28.52 9.576 25.704 9.576C21.608 9.576 18.408 10.44 16.104 12.168C13.864 13.832 12.744 16.168 12.744 19.176C12.744 21.224 13.224 22.92 14.184 24.264C15.208 25.544 16.68 26.6 18.6 27.432C20.52 28.264 22.92 29 25.8 29.64L29.352 30.504C33.704 31.464 37.544 32.712 40.872 34.248C44.2 35.72 46.824 37.736 48.744 40.296C50.664 42.856 51.624 46.152 51.624 50.184C51.624 54.216 50.6 57.736 48.552 60.744C46.568 63.752 43.72 66.12 40.008 67.848C36.296 69.512 31.912 70.344 26.856 70.344ZM62.508 69V1.8H89.196C93.292 1.8 96.94 2.632 100.14 4.296C103.404 5.896 105.932 8.2 107.724 11.208C109.58 14.152 110.508 17.704 110.508 21.864V23.112C110.508 27.272 109.548 30.856 107.628 33.864C105.772 36.872 103.244 39.176 100.044 40.776C96.844 42.376 93.228 43.176 89.196 43.176H72.876V69H62.508ZM72.876 33.768H88.14C91.788 33.768 94.7 32.808 96.876 30.888C99.052 28.968 100.14 26.344 100.14 23.016V22.056C100.14 18.664 99.052 16.008 96.876 14.088C94.7 12.168 91.788 11.208 88.14 11.208H72.876V33.768ZM120.352 69V1.8H148.576C152.736 1.8 156.384 2.536 159.52 4.008C162.72 5.416 165.184 7.464 166.912 10.152C168.704 12.84 169.6 16.04 169.6 19.752V20.808C169.6 25.032 168.576 28.424 166.528 30.984C164.544 33.48 162.112 35.24 159.232 36.264V37.8C161.664 37.928 163.616 38.76 165.088 40.296C166.56 41.768 167.296 43.912 167.296 46.728V69H156.832V48.168C156.832 46.44 156.384 45.064 155.488 44.04C154.592 43.016 153.152 42.504 151.168 42.504H130.72V69H120.352ZM130.72 33.096H147.424C151.136 33.096 154.016 32.168 156.064 30.312C158.112 28.392 159.136 25.8 159.136 22.536V21.768C159.136 18.504 158.112 15.944 156.064 14.088C154.08 12.168 151.2 11.208 147.424 11.208H130.72V33.096ZM181.008 69V1.8H223.344V11.208H191.376V30.504H220.656V39.912H191.376V59.592H223.824V69H181.008ZM229.641 69L248.841 1.8H267.081L286.185 69H275.529L271.113 53.16H244.809L240.393 69H229.641ZM247.401 43.56H268.521L258.729 8.232H257.193L247.401 43.56ZM292.793 69V59.784H301.817V11.016H292.793V1.8H319.673C328.633 1.8 335.481 4.072 340.217 8.616C345.017 13.16 347.417 20.008 347.417 29.16V41.736C347.417 50.888 345.017 57.736 340.217 62.28C335.481 66.76 328.633 69 319.673 69H292.793ZM312.281 59.592H319.769C325.593 59.592 329.913 58.12 332.729 55.176C335.545 52.232 336.953 47.848 336.953 42.024V28.776C336.953 22.888 335.545 18.504 332.729 15.624C329.913 12.744 325.593 11.304 319.769 11.304H312.281V59.592ZM363.404 70.344C361.164 70.344 359.276 69.608 357.74 68.136C356.268 66.664 355.532 64.776 355.532 62.472C355.532 60.168 356.268 58.312 357.74 56.904C359.276 55.432 361.164 54.696 363.404 54.696C365.644 54.696 367.5 55.432 368.972 56.904C370.508 58.376 371.276 60.232 371.276 62.472C371.276 64.776 370.508 66.664 368.972 68.136C367.5 69.608 365.644 70.344 363.404 70.344ZM389.936 70.344C387.696 70.344 385.808 69.608 384.272 68.136C382.8 66.664 382.064 64.776 382.064 62.472C382.064 60.168 382.8 58.312 384.272 56.904C385.808 55.432 387.696 54.696 389.936 54.696C392.176 54.696 394.032 55.432 395.504 56.904C397.04 58.376 397.808 60.232 397.808 62.472C397.808 64.776 397.04 66.664 395.504 68.136C394.032 69.608 392.176 70.344 389.936 70.344ZM416.467 70.344C414.227 70.344 412.339 69.608 410.803 68.136C409.331 66.664 408.595 64.776 408.595 62.472C408.595 60.168 409.331 58.312 410.803 56.904C412.339 55.432 414.227 54.696 416.467 54.696C418.707 54.696 420.563 55.432 422.035 56.904C423.571 58.376 424.339 60.232 424.339 62.472C424.339 64.776 423.571 66.664 422.035 68.136C420.563 69.608 418.707 70.344 416.467 70.344Z" fill="#F25D27"/>
</svg>
